<svg width="17" height="17" viewBox="0 0 17 17" fill="none" xmlns="http://www.w3.org/2000/svg">
<path d="M12.0483 1.76367H5.13265C4.09665 1.76367 3.24902 2.60457 3.24902 3.6473V13.3278C3.24902 14.3706 4.09665 15.2182 5.13265 15.2182H12.0483C13.091 15.2182 13.9319 14.3706 13.9319 13.3278V3.6473C13.9319 2.60457 13.091 1.76367 12.0483 1.76367ZM5.82558 11.4711H11.3554C11.6379 11.4711 11.8599 11.6999 11.8599 11.9757C11.8599 12.2515 11.6379 12.4802 11.3554 12.4802H5.82558C5.54976 12.4802 5.32103 12.2515 5.32103 11.9757C5.32103 11.6999 5.54976 11.4711 5.82558 11.4711ZM5.32103 8.51785C5.32103 8.24203 5.54976 8.0133 5.82558 8.0133H11.3554C11.6379 8.0133 11.8599 8.24203 11.8599 8.51785C11.8599 8.80039 11.6379 9.02239 11.3554 9.02239H5.82558C5.54976 9.02239 5.32103 8.80039 5.32103 8.51785ZM11.3554 5.56458H5.82558C5.54976 5.56458 5.32103 5.34258 5.32103 5.06003C5.32103 4.78421 5.54976 4.55549 5.82558 4.55549H11.3554C11.6379 4.55549 11.8599 4.78421 11.8599 5.06003C11.8599 5.34258 11.6379 5.56458 11.3554 5.56458Z" fill="black"/>
</svg>
