<svg width="140" height="84" viewBox="0 0 140 84" fill="none" xmlns="http://www.w3.org/2000/svg">
<g opacity="0.7">
<rect x="100.098" y="83.6016" width="1.35539" height="1.35761" transform="rotate(-90 100.098 83.6016)" fill="#C5C5C5"/>
<rect x="100.098" y="74.5605" width="1.35539" height="1.35761" transform="rotate(-90 100.098 74.5605)" fill="#C5C5C5"/>
<rect x="100.098" y="65.5215" width="1.35539" height="1.35761" transform="rotate(-90 100.098 65.5215)" fill="#C5C5C5"/>
<rect x="100.098" y="56.4824" width="1.35539" height="1.35761" transform="rotate(-90 100.098 56.4824)" fill="#C5C5C5"/>
<rect x="100.098" y="47.4453" width="1.35539" height="1.35761" transform="rotate(-90 100.098 47.4453)" fill="#C5C5C5"/>
<rect x="100.098" y="38.4043" width="1.35539" height="1.35761" transform="rotate(-90 100.098 38.4043)" fill="#C5C5C5"/>
<rect x="100.098" y="29.3652" width="1.35539" height="1.35761" transform="rotate(-90 100.098 29.3652)" fill="#C5C5C5"/>
<rect x="100.098" y="20.3242" width="1.35539" height="1.35761" transform="rotate(-90 100.098 20.3242)" fill="#C5C5C5"/>
<rect x="100.098" y="11.2871" width="1.35539" height="1.35761" transform="rotate(-90 100.098 11.2871)" fill="#C5C5C5"/>
<rect x="100.098" y="2.24609" width="1.35539" height="1.35761" transform="rotate(-90 100.098 2.24609)" fill="#C5C5C5"/>
<rect x="109.151" y="83.6016" width="1.35539" height="1.35761" transform="rotate(-90 109.151 83.6016)" fill="#C5C5C5"/>
<rect x="109.151" y="74.5605" width="1.35539" height="1.35761" transform="rotate(-90 109.151 74.5605)" fill="#C5C5C5"/>
<rect x="109.151" y="65.5215" width="1.35539" height="1.35761" transform="rotate(-90 109.151 65.5215)" fill="#C5C5C5"/>
<rect x="109.151" y="56.4824" width="1.35539" height="1.35761" transform="rotate(-90 109.151 56.4824)" fill="#C5C5C5"/>
<rect x="109.151" y="47.4453" width="1.35539" height="1.35761" transform="rotate(-90 109.151 47.4453)" fill="#C5C5C5"/>
<rect x="109.151" y="38.4043" width="1.35539" height="1.35761" transform="rotate(-90 109.151 38.4043)" fill="#C5C5C5"/>
<rect x="109.151" y="29.3652" width="1.35539" height="1.35761" transform="rotate(-90 109.151 29.3652)" fill="#C5C5C5"/>
<rect x="109.151" y="20.3242" width="1.35539" height="1.35761" transform="rotate(-90 109.151 20.3242)" fill="#C5C5C5"/>
<rect x="109.151" y="11.2871" width="1.35539" height="1.35761" transform="rotate(-90 109.151 11.2871)" fill="#C5C5C5"/>
<rect x="109.151" y="2.24609" width="1.35539" height="1.35761" transform="rotate(-90 109.151 2.24609)" fill="#C5C5C5"/>
<rect x="118.207" y="83.6016" width="1.35539" height="1.35761" transform="rotate(-90 118.207 83.6016)" fill="#C5C5C5"/>
<rect x="118.207" y="74.5605" width="1.35539" height="1.35761" transform="rotate(-90 118.207 74.5605)" fill="#C5C5C5"/>
<rect x="118.207" y="65.5215" width="1.35539" height="1.35761" transform="rotate(-90 118.207 65.5215)" fill="#C5C5C5"/>
<rect x="118.207" y="56.4824" width="1.35539" height="1.35761" transform="rotate(-90 118.207 56.4824)" fill="#C5C5C5"/>
<rect x="118.207" y="47.4453" width="1.35539" height="1.35761" transform="rotate(-90 118.207 47.4453)" fill="#C5C5C5"/>
<rect x="118.207" y="38.4043" width="1.35539" height="1.35761" transform="rotate(-90 118.207 38.4043)" fill="#C5C5C5"/>
<rect x="118.207" y="29.3652" width="1.35539" height="1.35761" transform="rotate(-90 118.207 29.3652)" fill="#C5C5C5"/>
<rect x="118.207" y="20.3242" width="1.35539" height="1.35761" transform="rotate(-90 118.207 20.3242)" fill="#C5C5C5"/>
<rect x="118.207" y="11.2871" width="1.35539" height="1.35761" transform="rotate(-90 118.207 11.2871)" fill="#C5C5C5"/>
<rect x="118.207" y="2.24609" width="1.35539" height="1.35761" transform="rotate(-90 118.207 2.24609)" fill="#C5C5C5"/>
<rect x="127.261" y="83.6016" width="1.35539" height="1.35761" transform="rotate(-90 127.261 83.6016)" fill="#C5C5C5"/>
<rect x="127.261" y="74.5605" width="1.35539" height="1.35761" transform="rotate(-90 127.261 74.5605)" fill="#C5C5C5"/>
<rect x="127.261" y="65.5215" width="1.35539" height="1.35761" transform="rotate(-90 127.261 65.5215)" fill="#C5C5C5"/>
<rect x="127.261" y="56.4824" width="1.35539" height="1.35761" transform="rotate(-90 127.261 56.4824)" fill="#C5C5C5"/>
<rect x="127.261" y="47.4453" width="1.35539" height="1.35761" transform="rotate(-90 127.261 47.4453)" fill="#C5C5C5"/>
<rect x="127.261" y="38.4043" width="1.35539" height="1.35761" transform="rotate(-90 127.261 38.4043)" fill="#C5C5C5"/>
<rect x="127.261" y="29.3652" width="1.35539" height="1.35761" transform="rotate(-90 127.261 29.3652)" fill="#C5C5C5"/>
<rect x="127.261" y="20.3242" width="1.35539" height="1.35761" transform="rotate(-90 127.261 20.3242)" fill="#C5C5C5"/>
<rect x="127.261" y="11.2871" width="1.35539" height="1.35761" transform="rotate(-90 127.261 11.2871)" fill="#C5C5C5"/>
<rect x="127.261" y="2.24609" width="1.35539" height="1.35761" transform="rotate(-90 127.261 2.24609)" fill="#C5C5C5"/>
<rect x="136.315" y="83.6016" width="1.35539" height="1.35761" transform="rotate(-90 136.315 83.6016)" fill="#C5C5C5"/>
<rect x="136.315" y="74.5605" width="1.35539" height="1.35761" transform="rotate(-90 136.315 74.5605)" fill="#C5C5C5"/>
<rect x="136.315" y="65.5215" width="1.35539" height="1.35761" transform="rotate(-90 136.315 65.5215)" fill="#C5C5C5"/>
<rect x="136.315" y="56.4824" width="1.35539" height="1.35761" transform="rotate(-90 136.315 56.4824)" fill="#C5C5C5"/>
<rect x="136.315" y="47.4453" width="1.35539" height="1.35761" transform="rotate(-90 136.315 47.4453)" fill="#C5C5C5"/>
<rect x="136.315" y="38.4043" width="1.35539" height="1.35761" transform="rotate(-90 136.315 38.4043)" fill="#C5C5C5"/>
<rect x="136.315" y="29.3652" width="1.35539" height="1.35761" transform="rotate(-90 136.315 29.3652)" fill="#C5C5C5"/>
<rect x="136.315" y="20.3242" width="1.35539" height="1.35761" transform="rotate(-90 136.315 20.3242)" fill="#C5C5C5"/>
<rect x="136.315" y="11.2871" width="1.35539" height="1.35761" transform="rotate(-90 136.315 11.2871)" fill="#C5C5C5"/>
<rect x="136.315" y="2.24609" width="1.35539" height="1.35761" transform="rotate(-90 136.315 2.24609)" fill="#C5C5C5"/>
</g>
<g opacity="0.7">
<rect x="0.929688" y="83.6016" width="1.35539" height="1.35761" transform="rotate(-90 0.929688 83.6016)" fill="#C5C5C5"/>
<rect x="0.929688" y="74.5605" width="1.35539" height="1.35761" transform="rotate(-90 0.929688 74.5605)" fill="#C5C5C5"/>
<rect x="0.929688" y="65.5215" width="1.35539" height="1.35761" transform="rotate(-90 0.929688 65.5215)" fill="#C5C5C5"/>
<rect x="0.929688" y="56.4824" width="1.35539" height="1.35761" transform="rotate(-90 0.929688 56.4824)" fill="#C5C5C5"/>
<rect x="0.929688" y="47.4453" width="1.35539" height="1.35761" transform="rotate(-90 0.929688 47.4453)" fill="#C5C5C5"/>
<rect x="0.929688" y="38.4043" width="1.35539" height="1.35761" transform="rotate(-90 0.929688 38.4043)" fill="#C5C5C5"/>
<rect x="0.929688" y="29.3652" width="1.35539" height="1.35761" transform="rotate(-90 0.929688 29.3652)" fill="#C5C5C5"/>
<rect x="0.929688" y="20.3242" width="1.35539" height="1.35761" transform="rotate(-90 0.929688 20.3242)" fill="#C5C5C5"/>
<rect x="0.929688" y="11.2871" width="1.35539" height="1.35761" transform="rotate(-90 0.929688 11.2871)" fill="#C5C5C5"/>
<rect x="0.929688" y="2.24609" width="1.35539" height="1.35761" transform="rotate(-90 0.929688 2.24609)" fill="#C5C5C5"/>
<rect x="9.9834" y="83.6016" width="1.35539" height="1.35761" transform="rotate(-90 9.9834 83.6016)" fill="#C5C5C5"/>
<rect x="9.9834" y="74.5605" width="1.35539" height="1.35761" transform="rotate(-90 9.9834 74.5605)" fill="#C5C5C5"/>
<rect x="9.9834" y="65.5215" width="1.35539" height="1.35761" transform="rotate(-90 9.9834 65.5215)" fill="#C5C5C5"/>
<rect x="9.9834" y="56.4824" width="1.35539" height="1.35761" transform="rotate(-90 9.9834 56.4824)" fill="#C5C5C5"/>
<rect x="9.9834" y="47.4453" width="1.35539" height="1.35761" transform="rotate(-90 9.9834 47.4453)" fill="#C5C5C5"/>
<rect x="9.9834" y="38.4043" width="1.35539" height="1.35761" transform="rotate(-90 9.9834 38.4043)" fill="#C5C5C5"/>
<rect x="9.9834" y="29.3652" width="1.35539" height="1.35761" transform="rotate(-90 9.9834 29.3652)" fill="#C5C5C5"/>
<rect x="9.9834" y="20.3242" width="1.35539" height="1.35761" transform="rotate(-90 9.9834 20.3242)" fill="#C5C5C5"/>
<rect x="9.9834" y="11.2871" width="1.35539" height="1.35761" transform="rotate(-90 9.9834 11.2871)" fill="#C5C5C5"/>
<rect x="9.9834" y="2.24609" width="1.35539" height="1.35761" transform="rotate(-90 9.9834 2.24609)" fill="#C5C5C5"/>
<rect x="19.0391" y="83.6016" width="1.35539" height="1.35761" transform="rotate(-90 19.0391 83.6016)" fill="#C5C5C5"/>
<rect x="19.0391" y="74.5605" width="1.35539" height="1.35761" transform="rotate(-90 19.0391 74.5605)" fill="#C5C5C5"/>
<rect x="19.0391" y="65.5215" width="1.35539" height="1.35761" transform="rotate(-90 19.0391 65.5215)" fill="#C5C5C5"/>
<rect x="19.0391" y="56.4824" width="1.35539" height="1.35761" transform="rotate(-90 19.0391 56.4824)" fill="#C5C5C5"/>
<rect x="19.0391" y="47.4453" width="1.35539" height="1.35761" transform="rotate(-90 19.0391 47.4453)" fill="#C5C5C5"/>
<rect x="19.0391" y="38.4043" width="1.35539" height="1.35761" transform="rotate(-90 19.0391 38.4043)" fill="#C5C5C5"/>
<rect x="19.0391" y="29.3652" width="1.35539" height="1.35761" transform="rotate(-90 19.0391 29.3652)" fill="#C5C5C5"/>
<rect x="19.0391" y="20.3242" width="1.35539" height="1.35761" transform="rotate(-90 19.0391 20.3242)" fill="#C5C5C5"/>
<rect x="19.0391" y="11.2871" width="1.35539" height="1.35761" transform="rotate(-90 19.0391 11.2871)" fill="#C5C5C5"/>
<rect x="19.0391" y="2.24609" width="1.35539" height="1.35761" transform="rotate(-90 19.0391 2.24609)" fill="#C5C5C5"/>
<rect x="28.0928" y="83.6016" width="1.35539" height="1.35761" transform="rotate(-90 28.0928 83.6016)" fill="#C5C5C5"/>
<rect x="28.0928" y="74.5605" width="1.35539" height="1.35761" transform="rotate(-90 28.0928 74.5605)" fill="#C5C5C5"/>
<rect x="28.0928" y="65.5215" width="1.35539" height="1.35761" transform="rotate(-90 28.0928 65.5215)" fill="#C5C5C5"/>
<rect x="28.0928" y="56.4824" width="1.35539" height="1.35761" transform="rotate(-90 28.0928 56.4824)" fill="#C5C5C5"/>
<rect x="28.0928" y="47.4453" width="1.35539" height="1.35761" transform="rotate(-90 28.0928 47.4453)" fill="#C5C5C5"/>
<rect x="28.0928" y="38.4043" width="1.35539" height="1.35761" transform="rotate(-90 28.0928 38.4043)" fill="#C5C5C5"/>
<rect x="28.0928" y="29.3652" width="1.35539" height="1.35761" transform="rotate(-90 28.0928 29.3652)" fill="#C5C5C5"/>
<rect x="28.0928" y="20.3242" width="1.35539" height="1.35761" transform="rotate(-90 28.0928 20.3242)" fill="#C5C5C5"/>
<rect x="28.0928" y="11.2871" width="1.35539" height="1.35761" transform="rotate(-90 28.0928 11.2871)" fill="#C5C5C5"/>
<rect x="28.0928" y="2.24609" width="1.35539" height="1.35761" transform="rotate(-90 28.0928 2.24609)" fill="#C5C5C5"/>
<rect x="37.1475" y="83.6016" width="1.35539" height="1.35761" transform="rotate(-90 37.1475 83.6016)" fill="#C5C5C5"/>
<rect x="37.1475" y="74.5605" width="1.35539" height="1.35761" transform="rotate(-90 37.1475 74.5605)" fill="#C5C5C5"/>
<rect x="37.1475" y="65.5215" width="1.35539" height="1.35761" transform="rotate(-90 37.1475 65.5215)" fill="#C5C5C5"/>
<rect x="37.1475" y="56.4824" width="1.35539" height="1.35761" transform="rotate(-90 37.1475 56.4824)" fill="#C5C5C5"/>
<rect x="37.1475" y="47.4453" width="1.35539" height="1.35761" transform="rotate(-90 37.1475 47.4453)" fill="#C5C5C5"/>
<rect x="37.1475" y="38.4043" width="1.35539" height="1.35761" transform="rotate(-90 37.1475 38.4043)" fill="#C5C5C5"/>
<rect x="37.1475" y="29.3652" width="1.35539" height="1.35761" transform="rotate(-90 37.1475 29.3652)" fill="#C5C5C5"/>
<rect x="37.1475" y="20.3242" width="1.35539" height="1.35761" transform="rotate(-90 37.1475 20.3242)" fill="#C5C5C5"/>
<rect x="37.1475" y="11.2871" width="1.35539" height="1.35761" transform="rotate(-90 37.1475 11.2871)" fill="#C5C5C5"/>
<rect x="37.1475" y="2.24609" width="1.35539" height="1.35761" transform="rotate(-90 37.1475 2.24609)" fill="#C5C5C5"/>
<rect x="46.2012" y="83.6016" width="1.35539" height="1.35761" transform="rotate(-90 46.2012 83.6016)" fill="#C5C5C5"/>
<rect x="46.2012" y="74.5605" width="1.35539" height="1.35761" transform="rotate(-90 46.2012 74.5605)" fill="#C5C5C5"/>
<rect x="46.2012" y="65.5215" width="1.35539" height="1.35761" transform="rotate(-90 46.2012 65.5215)" fill="#C5C5C5"/>
<rect x="46.2012" y="56.4824" width="1.35539" height="1.35761" transform="rotate(-90 46.2012 56.4824)" fill="#C5C5C5"/>
<rect x="46.2012" y="47.4453" width="1.35539" height="1.35761" transform="rotate(-90 46.2012 47.4453)" fill="#C5C5C5"/>
<rect x="46.2012" y="38.4043" width="1.35539" height="1.35761" transform="rotate(-90 46.2012 38.4043)" fill="#C5C5C5"/>
<rect x="46.2012" y="29.3652" width="1.35539" height="1.35761" transform="rotate(-90 46.2012 29.3652)" fill="#C5C5C5"/>
<rect x="46.2012" y="20.3242" width="1.35539" height="1.35761" transform="rotate(-90 46.2012 20.3242)" fill="#C5C5C5"/>
<rect x="46.2012" y="11.2871" width="1.35539" height="1.35761" transform="rotate(-90 46.2012 11.2871)" fill="#C5C5C5"/>
<rect x="46.2012" y="2.24609" width="1.35539" height="1.35761" transform="rotate(-90 46.2012 2.24609)" fill="#C5C5C5"/>
<rect x="55.2559" y="83.6016" width="1.35539" height="1.35761" transform="rotate(-90 55.2559 83.6016)" fill="#C5C5C5"/>
<rect x="55.2559" y="74.5605" width="1.35539" height="1.35761" transform="rotate(-90 55.2559 74.5605)" fill="#C5C5C5"/>
<rect x="55.2559" y="65.5215" width="1.35539" height="1.35761" transform="rotate(-90 55.2559 65.5215)" fill="#C5C5C5"/>
<rect x="55.2559" y="56.4824" width="1.35539" height="1.35761" transform="rotate(-90 55.2559 56.4824)" fill="#C5C5C5"/>
<rect x="55.2559" y="47.4453" width="1.35539" height="1.35761" transform="rotate(-90 55.2559 47.4453)" fill="#C5C5C5"/>
<rect x="55.2559" y="38.4043" width="1.35539" height="1.35761" transform="rotate(-90 55.2559 38.4043)" fill="#C5C5C5"/>
<rect x="55.2559" y="29.3652" width="1.35539" height="1.35761" transform="rotate(-90 55.2559 29.3652)" fill="#C5C5C5"/>
<rect x="55.2559" y="20.3242" width="1.35539" height="1.35761" transform="rotate(-90 55.2559 20.3242)" fill="#C5C5C5"/>
<rect x="55.2559" y="11.2871" width="1.35539" height="1.35761" transform="rotate(-90 55.2559 11.2871)" fill="#C5C5C5"/>
<rect x="55.2559" y="2.24609" width="1.35539" height="1.35761" transform="rotate(-90 55.2559 2.24609)" fill="#C5C5C5"/>
<rect x="64.3096" y="83.6016" width="1.35539" height="1.35761" transform="rotate(-90 64.3096 83.6016)" fill="#C5C5C5"/>
<rect x="64.3105" y="74.5605" width="1.35539" height="1.35761" transform="rotate(-90 64.3105 74.5605)" fill="#C5C5C5"/>
<rect x="64.3105" y="65.5215" width="1.35539" height="1.35761" transform="rotate(-90 64.3105 65.5215)" fill="#C5C5C5"/>
<rect x="64.3105" y="56.4824" width="1.35539" height="1.35761" transform="rotate(-90 64.3105 56.4824)" fill="#C5C5C5"/>
<rect x="64.3105" y="47.4453" width="1.35539" height="1.35761" transform="rotate(-90 64.3105 47.4453)" fill="#C5C5C5"/>
<rect x="64.3105" y="38.4043" width="1.35539" height="1.35761" transform="rotate(-90 64.3105 38.4043)" fill="#C5C5C5"/>
<rect x="64.3105" y="29.3652" width="1.35539" height="1.35761" transform="rotate(-90 64.3105 29.3652)" fill="#C5C5C5"/>
<rect x="64.3105" y="20.3242" width="1.35539" height="1.35761" transform="rotate(-90 64.3105 20.3242)" fill="#C5C5C5"/>
<rect x="64.3105" y="11.2871" width="1.35539" height="1.35761" transform="rotate(-90 64.3105 11.2871)" fill="#C5C5C5"/>
<rect x="64.3105" y="2.24609" width="1.35539" height="1.35761" transform="rotate(-90 64.3105 2.24609)" fill="#C5C5C5"/>
<rect x="73.3652" y="83.6016" width="1.35539" height="1.35761" transform="rotate(-90 73.3652 83.6016)" fill="#C5C5C5"/>
<rect x="73.3652" y="74.5605" width="1.35539" height="1.35761" transform="rotate(-90 73.3652 74.5605)" fill="#C5C5C5"/>
<rect x="73.3652" y="65.5215" width="1.35539" height="1.35761" transform="rotate(-90 73.3652 65.5215)" fill="#C5C5C5"/>
<rect x="73.3652" y="56.4824" width="1.35539" height="1.35761" transform="rotate(-90 73.3652 56.4824)" fill="#C5C5C5"/>
<rect x="73.3652" y="47.4453" width="1.35539" height="1.35761" transform="rotate(-90 73.3652 47.4453)" fill="#C5C5C5"/>
<rect x="73.3652" y="38.4043" width="1.35539" height="1.35761" transform="rotate(-90 73.3652 38.4043)" fill="#C5C5C5"/>
<rect x="73.3652" y="29.3652" width="1.35539" height="1.35761" transform="rotate(-90 73.3652 29.3652)" fill="#C5C5C5"/>
<rect x="73.3652" y="20.3242" width="1.35539" height="1.35761" transform="rotate(-90 73.3652 20.3242)" fill="#C5C5C5"/>
<rect x="73.3652" y="11.2871" width="1.35539" height="1.35761" transform="rotate(-90 73.3652 11.2871)" fill="#C5C5C5"/>
<rect x="73.3652" y="2.24609" width="1.35539" height="1.35761" transform="rotate(-90 73.3652 2.24609)" fill="#C5C5C5"/>
<rect x="82.417" y="83.6016" width="1.35539" height="1.35761" transform="rotate(-90 82.417 83.6016)" fill="#C5C5C5"/>
<rect x="82.417" y="74.5605" width="1.35539" height="1.35761" transform="rotate(-90 82.417 74.5605)" fill="#C5C5C5"/>
<rect x="82.417" y="65.5215" width="1.35539" height="1.35761" transform="rotate(-90 82.417 65.5215)" fill="#C5C5C5"/>
<rect x="82.417" y="56.4824" width="1.35539" height="1.35761" transform="rotate(-90 82.417 56.4824)" fill="#C5C5C5"/>
<rect x="82.417" y="47.4453" width="1.35539" height="1.35761" transform="rotate(-90 82.417 47.4453)" fill="#C5C5C5"/>
<rect x="82.417" y="38.4043" width="1.35539" height="1.35761" transform="rotate(-90 82.417 38.4043)" fill="#C5C5C5"/>
<rect x="82.417" y="29.3652" width="1.35539" height="1.35761" transform="rotate(-90 82.417 29.3652)" fill="#C5C5C5"/>
<rect x="82.417" y="20.3242" width="1.35539" height="1.35761" transform="rotate(-90 82.417 20.3242)" fill="#C5C5C5"/>
<rect x="82.417" y="11.2871" width="1.35539" height="1.35761" transform="rotate(-90 82.417 11.2871)" fill="#C5C5C5"/>
<rect x="82.417" y="2.24609" width="1.35539" height="1.35761" transform="rotate(-90 82.417 2.24609)" fill="#C5C5C5"/>
<rect x="91.4727" y="83.6016" width="1.35539" height="1.35761" transform="rotate(-90 91.4727 83.6016)" fill="#C5C5C5"/>
<rect x="91.4746" y="74.5605" width="1.35539" height="1.35761" transform="rotate(-90 91.4746 74.5605)" fill="#C5C5C5"/>
<rect x="91.4746" y="65.5215" width="1.35539" height="1.35761" transform="rotate(-90 91.4746 65.5215)" fill="#C5C5C5"/>
<rect x="91.4746" y="56.4824" width="1.35539" height="1.35761" transform="rotate(-90 91.4746 56.4824)" fill="#C5C5C5"/>
<rect x="91.4746" y="47.4453" width="1.35539" height="1.35761" transform="rotate(-90 91.4746 47.4453)" fill="#C5C5C5"/>
<rect x="91.4746" y="38.4043" width="1.35539" height="1.35761" transform="rotate(-90 91.4746 38.4043)" fill="#C5C5C5"/>
<rect x="91.4746" y="29.3652" width="1.35539" height="1.35761" transform="rotate(-90 91.4746 29.3652)" fill="#C5C5C5"/>
<rect x="91.4746" y="20.3242" width="1.35539" height="1.35761" transform="rotate(-90 91.4746 20.3242)" fill="#C5C5C5"/>
<rect x="91.4746" y="11.2871" width="1.35539" height="1.35761" transform="rotate(-90 91.4746 11.2871)" fill="#C5C5C5"/>
<rect x="91.4746" y="2.24609" width="1.35539" height="1.35761" transform="rotate(-90 91.4746 2.24609)" fill="#C5C5C5"/>
</g>
</svg>
