<svg width="8" height="2" viewBox="0 0 8 2" fill="none" xmlns="http://www.w3.org/2000/svg">
<path d="M3.38602 1.32864C3.38602 1.43247 3.57484 1.51665 3.80776 1.51665C4.04068 1.51665 4.22949 1.43247 4.22949 1.32864C4.22949 1.2248 4.04068 1.14062 3.80776 1.14062C3.57484 1.14062 3.38602 1.2248 3.38602 1.32864Z" stroke="#CBD5E0" stroke-width="0.843469" stroke-linecap="round" stroke-linejoin="round"/>
<path d="M0.433874 1.32864C0.433874 1.43247 0.622691 1.51665 0.855609 1.51665C1.08853 1.51665 1.27734 1.43247 1.27734 1.32864C1.27734 1.2248 1.08853 1.14062 0.855609 1.14062C0.622691 1.14062 0.433874 1.2248 0.433874 1.32864Z" stroke="#CBD5E0" stroke-width="0.843469" stroke-linecap="round" stroke-linejoin="round"/>
<path d="M6.33817 1.32864C6.33817 1.43247 6.52699 1.51665 6.75991 1.51665C6.99282 1.51665 7.18164 1.43247 7.18164 1.32864C7.18164 1.2248 6.99282 1.14062 6.75991 1.14062C6.52699 1.14062 6.33817 1.2248 6.33817 1.32864Z" stroke="#CBD5E0" stroke-width="0.843469" stroke-linecap="round" stroke-linejoin="round"/>
</svg>
